# File created by Blade
# Date/Time:  Thu Jan 22 16:53:03 2015
#---------------------------------------------------------
:version 1.10
:name HOM
:units
  mass 1.0
  length 1.000000
  angle deg
:documentation
     Acclaim Skeleton File
:root
   axis xyz
   order TX TY TZ RX RY RZ
   position 0.000000 0.000000 0.000000
   orientation 0 0 0
:bonedata
   begin
      id 1
      name RightUpLeg_dum
      direction -1.000000 0.000000 0.000000
      length 3.766986
      axis 0.0 0.0 0.0 xyz
   end
   begin
      id 2
      name LeftUpLeg_dum
      direction 1.000000 0.000000 0.000000
      length 3.766986
      axis 0.0 0.0 0.0 xyz
   end
   begin
      id 3
      name Spine_dum
      direction 0.000000 1.000000 0.000000
      length 7.779697
      axis 0.0 0.0 0.0 xyz
   end
   begin
      id 4
      name RightUpLeg
      direction 0.000000 -1.000000 0.000000
      length 18.017682
      axis 0.0 0.0 0.0 xyz
      dof rx ry rz
   end
   begin
      id 5
      name RightLeg
      direction 0.000000 -1.000000 0.000000
      length 16.881075
      axis 0.0 0.0 0.0 xyz
      dof rx ry rz
   end
   begin
      id 6
      name RightFoot
      direction 0.000000 -0.258819 0.965926
      length 5.770812
      axis 15.0 0.0 0.0 xyz
      dof rx ry rz
   end
   begin
      id 7
      name RightToeBase
      direction 0.000000 0.000000 1.000000
      length 2.952750
      axis 0.0 0.0 0.0 xyz
      dof rx ry rz
   end
   begin
      id 8
      name LeftUpLeg
      direction 0.000000 -1.000000 0.000000
      length 18.017682
      axis 0.0 0.0 0.0 xyz
      dof rx ry rz
   end
   begin
      id 9
      name LeftLeg
      direction 0.000000 -1.000000 0.000000
      length 16.881075
      axis 0.0 0.0 0.0 xyz
      dof rx ry rz
   end
   begin
      id 10
      name LeftFoot
      direction 0.000000 -0.258819 0.965926
      length 5.770812
      axis 15.0 0.0 0.0 xyz
      dof rx ry rz
   end
   begin
      id 11
      name LeftToeBase
      direction 0.000000 0.000000 1.000000
      length 2.952750
      axis 0.0 0.0 0.0 xyz
      dof rx ry rz
   end
   begin
      id 12
      name Spine
      direction 0.000000 1.000000 0.000000
      length 0.000000
      axis 0.0 0.0 0.0 xyz
      dof rx ry rz
   end
   begin
      id 13
      name Spine_dum1
      direction 0.000000 1.000000 0.000000
      length 10.941760
      axis 0.0 0.0 0.0 xyz
   end
   begin
      id 14
      name Spine_dum2
      direction 0.000000 1.000000 0.000000
      length 10.941760
      axis 0.0 0.0 0.0 xyz
   end
   begin
      id 15
      name Spine_dum3
      direction 0.000000 1.000000 0.000000
      length 16.646042
      axis 0.0 0.0 0.0 xyz
   end
   begin
      id 16
      name RightShoulder
      direction -1.000000 0.000000 0.000000
      length 7.708937
      axis 0.0 0.0 90.0 xyz
      dof rx ry rz
   end
   begin
      id 17
      name RightArm
      direction -1.000000 0.000000 0.000000
      length 11.521345
      axis 0.0 0.0 90.0 xyz
      dof rx ry rz
   end
   begin
      id 18
      name RightForeArm
      direction -1.000000 0.000000 0.000000
      length 10.175898
      axis 0.0 0.0 90.0 xyz
      dof ry rz rx
   end
   begin
      id 19
      name RightHand
      direction -1.000000 0.000000 0.000000
      length 0.000000
      axis 0.0 0.0 90.0 xyz
      dof rx ry rz
   end
   begin
      id 20
      name RightHand_dum1
      direction -1.000000 0.000000 0.000000
      length 3.937000
      axis 0.0 0.0 90.0 xyz
   end
   begin
      id 21
      name RightHand_dum2
      direction 0.000000 0.000000 0.000000
      length 0.000000
      axis 0.0 0.0 90.0 xyz
   end
   begin
      id 22
      name RightHandThumb1
      direction 0.000000 0.000000 1.000000
      length 3.937000
      axis 0.0 0.0 90.0 xyz
      dof rx rz ry
   end
   begin
      id 23
      name LeftShoulder
      direction 1.000000 0.000000 0.000000
      length 7.708937
      axis 0.0 0.0 -90.0 xyz
      dof rx ry rz
   end
   begin
      id 24
      name LeftArm
      direction 1.000000 0.000000 0.000000
      length 11.521345
      axis 0.0 0.0 -90.0 xyz
      dof rx ry rz
   end
   begin
      id 25
      name LeftForeArm
      direction 1.000000 0.000000 0.000000
      length 10.175898
      axis 0.0 0.0 -90.0 xyz
      dof ry rz rx
   end
   begin
      id 26
      name LeftHand
      direction 1.000000 0.000000 0.000000
      length 0.000000
      axis 0.0 0.0 -90.0 xyz
      dof rx ry rz
   end
   begin
      id 27
      name LeftHand_dum1
      direction 1.000000 0.000000 0.000000
      length 3.937000
      axis 0.0 0.0 -90.0 xyz
   end
   begin
      id 28
      name LeftHand_dum2
      direction 0.000000 0.000000 0.000000
      length 0.000000
      axis 0.0 0.0 -90.0 xyz
   end
   begin
      id 29
      name LeftHandThumb1
      direction 0.000000 0.000000 1.000000
      length 3.937000
      axis 0.0 0.0 -90.0 xyz
      dof rx rz ry
   end
   begin
      id 30
      name Head
      direction 0.000000 1.000000 0.000000
      length 4.527550
      axis 0.0 0.0 0.0 xyz
      dof rx ry rz
   end
:hierarchy
   begin
      root RightUpLeg_dum LeftUpLeg_dum Spine_dum
      RightUpLeg_dum RightUpLeg
      LeftUpLeg_dum LeftUpLeg
      Spine_dum Spine
      RightUpLeg RightLeg
      RightLeg RightFoot
      RightFoot RightToeBase
      LeftUpLeg LeftLeg
      LeftLeg LeftFoot
      LeftFoot LeftToeBase
      Spine Spine_dum1 Spine_dum2 Spine_dum3
      Spine_dum1 RightShoulder
      Spine_dum2 LeftShoulder
      Spine_dum3 Head
      RightShoulder RightArm
      RightArm RightForeArm
      RightForeArm RightHand
      RightHand RightHand_dum1 RightHand_dum2
      RightHand_dum2 RightHandThumb1
      LeftShoulder LeftArm
      LeftArm LeftForeArm
      LeftForeArm LeftHand
      LeftHand LeftHand_dum1 LeftHand_dum2
      LeftHand_dum2 LeftHandThumb1
   end

# File created by Blade
# Date/Time:  Thu Jan 22 16:52:56 2015
# Frame Rate: 120.000 fps
#------------------------------------------------------
:FULLY-SPECIFIED
:DEGREES
171
root 4.175166 37.194792 2.928411 -2.390987 -3.139919 2.605852
RightUpLeg 9.319503 -6.275662 -7.023641
RightLeg -3.100458 -0.000000 0.000000
RightFoot -13.556018 -16.818999 20.844664
RightToeBase 15.532654 -0.000000 -0.000000
LeftUpLeg 7.027179 3.073893 -0.121311
LeftLeg 1.672803 -0.000000 -0.000000
LeftFoot -12.094691 16.362850 -18.046084
LeftToeBase 9.940815 -0.000000 -0.000000
Spine 6.975545 -1.641441 -3.353550
RightShoulder -3.880999 -8.541171 -27.553496
RightArm 8.146244 31.461550 32.548818
RightForeArm -5.326620 -0.000000 20.494492
RightHand 1.580952 -0.000000 5.945187
RightHandThumb1 -24.326973 -0.000000 -32.862282
LeftShoulder -22.671106 31.405928 16.654694
LeftArm 35.897561 -46.398376 -44.696746
LeftForeArm 42.309996 -0.000000 8.463617
LeftHand -16.521075 0.000000 -6.575127
LeftHandThumb1 -26.253704 0.000000 33.147579
Head -12.347916 12.924168 0.784854
172
root 4.198646 37.196550 2.932367 -2.452438 -3.171676 2.605256
RightUpLeg 9.275611 -6.307427 -7.074833
RightLeg -2.891648 -0.000000 0.000000
RightFoot -13.621171 -16.712013 20.886683
RightToeBase 15.538801 -0.000000 -0.000000
LeftUpLeg 6.934777 3.071183 -0.158864
LeftLeg 2.002097 -0.000000 -0.000000
LeftFoot -12.265558 16.346148 -18.074668
LeftToeBase 9.938676 -0.000000 -0.000000
Spine 7.082054 -1.613659 -3.323518
RightShoulder -3.827576 -8.717969 -27.482928
RightArm 8.232298 31.278531 32.931276
RightForeArm -5.362011 -0.000000 20.817563
RightHand 1.605120 0.000000 5.774744
RightHandThumb1 -24.326973 -0.000000 -32.862282
LeftShoulder -22.589096 31.399627 16.564462
LeftArm 35.881429 -46.190274 -44.905587
LeftForeArm 42.367042 -0.000000 8.764834
LeftHand -16.819049 -0.000000 -6.708605
LeftHandThumb1 -26.253704 0.000000 33.147579
Head -12.100432 12.906333 0.744472
173
root 4.222046 37.197033 2.936392 -2.519946 -3.209477 2.605062
RightUpLeg 9.259280 -6.241335 -7.109934
RightLeg -2.732407 -0.000000 0.000000
RightFoot -13.708980 -16.716554 20.937715
RightToeBase 15.563181 -0.000000 -0.000000
LeftUpLeg 6.852906 3.062117 -0.210946
LeftLeg 2.319812 -0.000000 -0.000000
LeftFoot -12.443971 16.413435 -18.060023
LeftToeBase 9.950308 -0.000000 -0.000000
Spine 7.206603 -1.583354 -3.313784
RightShoulder -3.813015 -8.935880 -27.323443
RightArm 8.364386 30.912040 33.234276
RightForeArm -5.071349 0.000000 21.139312
RightHand 1.658884 -0.000000 5.586905
RightHandThumb1 -24.326973 -0.000000 -32.862282
LeftShoulder -22.598701 31.474806 16.441154
LeftArm 36.051290 -45.998924 -45.267162
LeftForeArm 42.328673 -0.000000 9.058051
LeftHand -16.758877 -0.000000 -6.516051
LeftHandThumb1 -26.253704 0.000000 33.147579
Head -11.867350 12.922866 0.765262
174
root 4.247023 37.197105 2.940678 -2.589744 -3.240178 2.594264
RightUpLeg 9.243026 -6.213611 -7.144529
RightLeg -2.561618 -0.000000 0.000000
RightFoot -13.774073 -16.688582 20.962890
RightToeBase 15.586762 -0.000000 -0.000000
LeftUpLeg 6.771841 3.049541 -0.250670
LeftLeg 2.648772 -0.000000 -0.000000
LeftFoot -12.563509 16.460213 -17.922359
LeftToeBase 9.779598 -0.000000 -0.000000
Spine 7.335457 -1.556744 -3.279546
RightShoulder -3.803060 -9.259632 -27.153945
RightArm 8.538443 30.553108 33.561399
RightForeArm -4.780781 -0.000000 21.506626
RightHand 1.881375 0.000000 5.281442
RightHandThumb1 -24.326973 -0.000000 -32.862282
LeftShoulder -22.593436 31.558628 16.273940
LeftArm 36.201384 -45.787713 -45.569176
LeftForeArm 42.321953 -0.000000 9.330724
LeftHand -16.813021 -0.000000 -6.640660
LeftHandThumb1 -26.253704 0.000000 33.147579
Head -11.607147 13.017629 0.778240
175
root 4.269022 37.196908 2.945128 -2.668548 -3.254767 2.575811
RightUpLeg 9.270260 -6.112086 -7.158997
RightLeg -2.449559 -0.000000 0.000000
RightFoot -13.861246 -16.712391 21.097957
RightToeBase 15.600903 -0.000000 -0.000000
LeftUpLeg 6.693196 3.025591 -0.276187
LeftLeg 2.970342 -0.000000 -0.000000
LeftFoot -12.822497 16.491231 -18.080014
LeftToeBase 9.987262 -0.000000 -0.000000
Spine 7.486626 -1.548231 -3.256466
RightShoulder -3.774633 -9.517233 -26.955879
RightArm 8.620690 30.131736 33.847064
RightForeArm -4.479919 -0.000000 21.957609
RightHand 1.955098 0.000000 5.131421
RightHandThumb1 -24.326973 -0.000000 -32.862282
LeftShoulder -22.600286 31.648056 16.103303
LeftArm 36.411031 -45.639970 -45.978561
LeftForeArm 42.372758 0.000000 9.674417
LeftHand -16.841488 -0.000000 -6.545410
LeftHandThumb1 -26.253704 0.000000 33.147579
Head -11.365477 12.965586 0.770442
